<?xml version="1.0" standalone="no"?>
<!DOCTYPE svg PUBLIC "-//W3C//DTD SVG 20010904//EN"
 "http://www.w3.org/TR/2001/REC-SVG-20010904/DTD/svg10.dtd">
<svg version="1.0" xmlns="http://www.w3.org/2000/svg"
 width="700.000000pt" height="700.000000pt" viewBox="0 0 700.000000 700.000000"
 preserveAspectRatio="xMidYMid meet">
<metadata>
Created by potrace 1.14, written by Peter Selinger 2001-2017
</metadata>
<g transform="translate(0.000000,700.000000) scale(0.100000,-0.100000)"
fill="#000000" stroke="none">
<path d="M2156 5933 c0 -587 -1 -1073 -3 -1078 -2 -7 -367 -10 -1078 -10
l-1076 0 3 -110 3 -110 1073 1 c589 0 1073 -3 1073 -6 3 -13 5 -2226 2 -2236
-3 -7 -333 -10 -1076 -10 l-1072 0 -3 -109 -3 -110 1066 0 c586 0 1071 -2
1078 -5 10 -4 12 -231 12 -1075 l0 -1070 110 0 110 0 0 1075 0 1075 1122 0
c740 0 1124 -3 1126 -10 2 -5 3 -490 3 -1078 l-1 -1067 110 0 110 0 0 1075 c0
713 3 1075 10 1076 5 1 489 2 1075 3 l1065 1 3 110 3 110 -1076 -1 c-591 0
-1076 2 -1076 5 -3 14 -5 2227 -2 2236 2 7 350 10 1069 10 586 0 1070 3 1075
6 6 3 8 52 7 110 l-3 104 -1075 0 -1075 0 0 1075 0 1075 -107 3 c-82 2 -108 0
-109 -10 -1 -7 -2 -492 -3 -1078 l-1 -1065 -1125 0 -1125 0 0 1075 0 1075
-110 3 -110 3 1 -1068z m2468 -1323 c2 -8 3 -514 2 -1125 l-1 -1110 -1122 -1
c-1009 0 -1123 1 -1127 15 -3 14 -1 2235 3 2236 0 1 505 1 1121 1 993 -1 1121
-2 1124 -16z"/>
<path d="M2880 4115 l-75 -75 270 -270 270 -270 -270 -270 -270 -270 78 -77
77 -78 270 270 270 270 270 -270 270 -270 77 78 78 77 -270 270 -270 270 270
270 270 270 -78 77 -77 78 -270 -270 -270 -270 -268 268 c-147 147 -269 267
-272 267 -3 0 -39 -34 -80 -75z"/>
<path d="M5870 4323 c-164 -26 -342 -117 -470 -242 -108 -105 -203 -289 -227
-440 -13 -76 -7 -261 11 -334 41 -172 149 -340 296 -459 227 -183 558 -227
835 -111 221 93 403 297 470 526 26 91 27 98 30 227 4 136 -11 213 -62 334
-103 247 -334 435 -601 489 -66 14 -220 19 -282 10z m306 -242 c106 -35 176
-79 255 -161 152 -157 205 -365 148 -585 -53 -206 -244 -385 -457 -431 -78
-16 -188 -18 -252 -4 -131 30 -265 110 -345 208 -174 211 -191 508 -41 732 64
96 195 199 296 233 133 45 274 48 396 8z"/>
<path d="M3335 1824 c-259 -56 -483 -236 -593 -476 -70 -153 -89 -367 -47
-534 39 -153 112 -282 223 -391 75 -74 122 -108 219 -156 190 -96 420 -111
628 -42 272 91 483 327 544 610 94 427 -165 854 -590 975 -98 28 -286 35 -384
14z m309 -219 c104 -22 230 -98 310 -187 99 -109 154 -253 154 -403 0 -145
-37 -258 -121 -372 -189 -254 -562 -318 -827 -141 -286 192 -356 594 -151 871
87 119 236 213 381 241 31 6 215 0 254 -9z"/>
<path d="M430 1625 l-75 -75 270 -270 270 -270 -270 -270 -270 -270 78 -77 77
-78 265 265 c146 146 268 267 271 270 3 2 126 -117 274 -265 l270 -270 77 78
78 77 -270 270 c-148 148 -267 271 -265 274 3 3 124 125 270 271 l265 265 -78
77 -77 78 -270 -270 -270 -270 -268 268 c-147 147 -269 267 -272 267 -3 0 -39
-34 -80 -75z"/>
</g>
</svg>
